<?xml version="1.0" encoding="UTF-8" standalone="no"?>
<!DOCTYPE svg PUBLIC "-//W3C//DTD SVG 1.1//EN"
 "http://www.w3.org/Graphics/SVG/1.1/DTD/svg11.dtd">
<!-- Generated by graphviz version 2.38.0 (20140413.2041)
 -->
<!-- Title: MNIST&#45;train Pages: 1 -->
<svg width="467pt" height="721pt"
 viewBox="0.00 0.00 467.00 721.20" xmlns="http://www.w3.org/2000/svg" xmlns:xlink="http://www.w3.org/1999/xlink">
<g id="graph0" class="graph" transform="scale(1 1) rotate(0) translate(4 717.201)">
<title>MNIST&#45;train</title>
<polygon fill="white" stroke="none" points="-4,4 -4,-717.201 463,-717.201 463,4 -4,4"/>
<!-- layer1 -->
<g id="node1" class="node"><title>layer1</title>
<polygon fill="none" stroke="black" points="0.2,-0.5 0.2,-55.7001 459,-55.7001 459,-0.5 0.2,-0.5"/>
<text text-anchor="middle" x="50.2" y="-36.5001" font-family="Fira Mono" font-size="14.00">HDF5Data</text>
<text text-anchor="middle" x="50.2" y="-16.9" font-family="Fira Mono" font-size="14.00">train&#45;data</text>
<polyline fill="none" stroke="black" points="100.2,-0.5 100.2,-55.7001 "/>
<text text-anchor="middle" x="125" y="-40.5001" font-family="Fira Mono" font-size="14.00">top:</text>
<polyline fill="none" stroke="black" points="100.2,-28.1 149.8,-28.1 "/>
<text text-anchor="middle" x="125" y="-12.9" font-family="Fira Mono" font-size="14.00">bot:</text>
<polyline fill="none" stroke="black" points="149.8,-0.5 149.8,-55.7001 "/>
<text text-anchor="middle" x="229.2" y="-40.5001" font-family="Fira Mono" font-size="14.00">data (28x28x1x64)</text>
<polyline fill="none" stroke="black" points="308.6,-28.1 308.6,-55.7001 "/>
<text text-anchor="middle" x="383.8" y="-40.5001" font-family="Fira Mono" font-size="14.00">label (1x1x1x64)</text>
<polyline fill="none" stroke="black" points="149.8,-28.1 459,-28.1 "/>
<text text-anchor="middle" x="304.4" y="-12.9" font-family="Fira Mono" font-size="14.00"> </text>
</g>
<!-- layer2 -->
<g id="node2" class="node"><title>layer2</title>
<polygon fill="none" stroke="black" points="0,-92.7001 0,-147.9 325.2,-147.9 325.2,-92.7001 0,-92.7001"/>
<text text-anchor="middle" x="54.2" y="-128.7" font-family="Fira Mono" font-size="14.00">Convolution</text>
<text text-anchor="middle" x="54.2" y="-109.1" font-family="Fira Mono" font-size="14.00">conv1</text>
<polyline fill="none" stroke="black" points="108.4,-92.7001 108.4,-147.9 "/>
<text text-anchor="middle" x="133.2" y="-132.7" font-family="Fira Mono" font-size="14.00">top:</text>
<polyline fill="none" stroke="black" points="108.4,-120.3 158,-120.3 "/>
<text text-anchor="middle" x="133.2" y="-105.1" font-family="Fira Mono" font-size="14.00">bot:</text>
<polyline fill="none" stroke="black" points="158,-92.7001 158,-147.9 "/>
<text text-anchor="middle" x="241.6" y="-132.7" font-family="Fira Mono" font-size="14.00">conv (24x24x20x64)</text>
<polyline fill="none" stroke="black" points="158,-120.3 325.2,-120.3 "/>
<text text-anchor="middle" x="241.4" y="-105.1" font-family="Fira Mono" font-size="14.00">data (28x28x1x64)</text>
</g>
<!-- layer1&#45;&gt;layer2 -->
<g id="edge1" class="edge"><title>layer1:t1&#45;&gt;layer2:b1</title>
<path fill="none" stroke="black" d="M229.6,-56.2001C229.6,-68.981 236.491,-73.3794 239.829,-82.1"/>
<polygon fill="black" stroke="black" points="236.426,-82.9547 241.6,-92.2001 243.321,-81.7459 236.426,-82.9547"/>
</g>
<!-- layer8 -->
<g id="node8" class="node"><title>layer8</title>
<polygon fill="none" stroke="black" points="41.2,-657.501 41.2,-712.701 458,-712.701 458,-657.501 41.2,-657.501"/>
<text text-anchor="middle" x="95.4" y="-693.501" font-family="Fira Mono" font-size="14.00">SoftmaxLoss</text>
<text text-anchor="middle" x="95.4" y="-673.901" font-family="Fira Mono" font-size="14.00">loss</text>
<polyline fill="none" stroke="black" points="149.6,-657.501 149.6,-712.701 "/>
<text text-anchor="middle" x="174.4" y="-697.501" font-family="Fira Mono" font-size="14.00">top:</text>
<polyline fill="none" stroke="black" points="149.6,-685.101 199.2,-685.101 "/>
<text text-anchor="middle" x="174.4" y="-669.901" font-family="Fira Mono" font-size="14.00">bot:</text>
<polyline fill="none" stroke="black" points="199.2,-657.501 199.2,-712.701 "/>
<text text-anchor="middle" x="328.6" y="-697.501" font-family="Fira Mono" font-size="14.00"> </text>
<polyline fill="none" stroke="black" points="199.2,-685.101 458,-685.101 "/>
<text text-anchor="middle" x="253.4" y="-669.901" font-family="Fira Mono" font-size="14.00">ip2 (10x64)</text>
<polyline fill="none" stroke="black" points="307.6,-657.501 307.6,-685.101 "/>
<text text-anchor="middle" x="382.8" y="-669.901" font-family="Fira Mono" font-size="14.00">label (1x1x1x64)</text>
</g>
<!-- layer1&#45;&gt;layer8 -->
<g id="edge8" class="edge"><title>layer1:t2&#45;&gt;layer8:b2</title>
<path fill="none" stroke="black" d="M383.6,-56.2001C383.6,-125.224 382.6,-142.476 382.6,-211.5 382.6,-211.5 382.6,-211.5 382.6,-495.9 382.6,-564.004 382.6,-583.524 382.6,-646.884"/>
<polygon fill="black" stroke="black" points="379.1,-647.001 382.6,-657.001 386.1,-647.001 379.1,-647.001"/>
</g>
<!-- layer3 -->
<g id="node3" class="node"><title>layer3</title>
<polygon fill="none" stroke="black" points="39.8,-184.9 39.8,-240.1 331.4,-240.1 331.4,-184.9 39.8,-184.9"/>
<text text-anchor="middle" x="77.2" y="-220.9" font-family="Fira Mono" font-size="14.00">Pooling</text>
<text text-anchor="middle" x="77.2" y="-201.3" font-family="Fira Mono" font-size="14.00">pool1</text>
<polyline fill="none" stroke="black" points="114.6,-184.9 114.6,-240.1 "/>
<text text-anchor="middle" x="139.4" y="-224.9" font-family="Fira Mono" font-size="14.00">top:</text>
<polyline fill="none" stroke="black" points="114.6,-212.5 164.2,-212.5 "/>
<text text-anchor="middle" x="139.4" y="-197.3" font-family="Fira Mono" font-size="14.00">bot:</text>
<polyline fill="none" stroke="black" points="164.2,-184.9 164.2,-240.1 "/>
<text text-anchor="middle" x="247.8" y="-224.9" font-family="Fira Mono" font-size="14.00">pool (12x12x20x64)</text>
<polyline fill="none" stroke="black" points="164.2,-212.5 331.4,-212.5 "/>
<text text-anchor="middle" x="247.8" y="-197.3" font-family="Fira Mono" font-size="14.00">conv (24x24x20x64)</text>
</g>
<!-- layer2&#45;&gt;layer3 -->
<g id="edge2" class="edge"><title>layer2:t1&#45;&gt;layer3:b1</title>
<path fill="none" stroke="black" d="M241.6,-148.4C241.6,-160.566 244.975,-165.609 246.663,-174.213"/>
<polygon fill="black" stroke="black" points="243.198,-174.763 247.6,-184.4 250.169,-174.121 243.198,-174.763"/>
</g>
<!-- layer4 -->
<g id="node4" class="node"><title>layer4</title>
<polygon fill="none" stroke="black" points="9,-277.1 9,-332.3 334.2,-332.3 334.2,-277.1 9,-277.1"/>
<text text-anchor="middle" x="63.2" y="-313.1" font-family="Fira Mono" font-size="14.00">Convolution</text>
<text text-anchor="middle" x="63.2" y="-293.5" font-family="Fira Mono" font-size="14.00">conv2</text>
<polyline fill="none" stroke="black" points="117.4,-277.1 117.4,-332.3 "/>
<text text-anchor="middle" x="142.2" y="-317.1" font-family="Fira Mono" font-size="14.00">top:</text>
<polyline fill="none" stroke="black" points="117.4,-304.7 167,-304.7 "/>
<text text-anchor="middle" x="142.2" y="-289.5" font-family="Fira Mono" font-size="14.00">bot:</text>
<polyline fill="none" stroke="black" points="167,-277.1 167,-332.3 "/>
<text text-anchor="middle" x="250.4" y="-317.1" font-family="Fira Mono" font-size="14.00">conv2 (8x8x50x64)</text>
<polyline fill="none" stroke="black" points="167,-304.7 334.2,-304.7 "/>
<text text-anchor="middle" x="250.6" y="-289.5" font-family="Fira Mono" font-size="14.00">pool (12x12x20x64)</text>
</g>
<!-- layer3&#45;&gt;layer4 -->
<g id="edge3" class="edge"><title>layer3:t1&#45;&gt;layer4:b1</title>
<path fill="none" stroke="black" d="M247.6,-240.6C247.6,-252.642 249.288,-257.84 250.131,-266.46"/>
<polygon fill="black" stroke="black" points="246.642,-266.773 250.6,-276.6 253.634,-266.449 246.642,-266.773"/>
</g>
<!-- layer5 -->
<g id="node5" class="node"><title>layer5</title>
<polygon fill="none" stroke="black" points="49,-369.3 49,-424.5 332.2,-424.5 332.2,-369.3 49,-369.3"/>
<text text-anchor="middle" x="86.4" y="-405.3" font-family="Fira Mono" font-size="14.00">Pooling</text>
<text text-anchor="middle" x="86.4" y="-385.7" font-family="Fira Mono" font-size="14.00">pool2</text>
<polyline fill="none" stroke="black" points="123.8,-369.3 123.8,-424.5 "/>
<text text-anchor="middle" x="148.6" y="-409.3" font-family="Fira Mono" font-size="14.00">top:</text>
<polyline fill="none" stroke="black" points="123.8,-396.9 173.4,-396.9 "/>
<text text-anchor="middle" x="148.6" y="-381.7" font-family="Fira Mono" font-size="14.00">bot:</text>
<polyline fill="none" stroke="black" points="173.4,-369.3 173.4,-424.5 "/>
<text text-anchor="middle" x="252.8" y="-409.3" font-family="Fira Mono" font-size="14.00">pool2 (4x4x50x64)</text>
<polyline fill="none" stroke="black" points="173.4,-396.9 332.2,-396.9 "/>
<text text-anchor="middle" x="252.8" y="-381.7" font-family="Fira Mono" font-size="14.00">conv2 (8x8x50x64)</text>
</g>
<!-- layer4&#45;&gt;layer5 -->
<g id="edge4" class="edge"><title>layer4:t1&#45;&gt;layer5:b1</title>
<path fill="none" stroke="black" d="M250.6,-332.8C250.6,-344.819 251.725,-350.046 252.288,-358.668"/>
<polygon fill="black" stroke="black" points="248.793,-358.913 252.6,-368.8 255.79,-358.697 248.793,-358.913"/>
</g>
<!-- layer6 -->
<g id="node6" class="node"><title>layer6</title>
<polygon fill="none" stroke="black" points="8,-461.5 8,-528.301 333.2,-528.301 333.2,-461.5 8,-461.5"/>
<text text-anchor="middle" x="66.4" y="-513.101" font-family="Fira Mono" font-size="14.00">InnerProduct</text>
<text text-anchor="middle" x="66.4" y="-493.5" font-family="Fira Mono" font-size="14.00">ip1</text>
<text text-anchor="middle" x="66.4" y="-473.9" font-family="Fira Mono" font-size="14.00">(ReLU)</text>
<polyline fill="none" stroke="black" points="124.8,-461.5 124.8,-528.301 "/>
<text text-anchor="middle" x="149.6" y="-510.601" font-family="Fira Mono" font-size="14.00">top:</text>
<polyline fill="none" stroke="black" points="124.8,-495.7 174.4,-495.7 "/>
<text text-anchor="middle" x="149.6" y="-477.5" font-family="Fira Mono" font-size="14.00">bot:</text>
<polyline fill="none" stroke="black" points="174.4,-461.5 174.4,-528.301 "/>
<text text-anchor="middle" x="253.8" y="-510.601" font-family="Fira Mono" font-size="14.00">ip1 (500x64)</text>
<polyline fill="none" stroke="black" points="174.4,-495.7 333.2,-495.7 "/>
<text text-anchor="middle" x="253.8" y="-477.5" font-family="Fira Mono" font-size="14.00">pool2 (4x4x50x64)</text>
</g>
<!-- layer5&#45;&gt;layer6 -->
<g id="edge5" class="edge"><title>layer5:t1&#45;&gt;layer6:b1</title>
<path fill="none" stroke="black" d="M252.6,-425C252.6,-437.005 253.163,-442.249 253.444,-450.874"/>
<polygon fill="black" stroke="black" points="249.946,-451.056 253.6,-461 256.945,-450.948 249.946,-451.056"/>
</g>
<!-- layer7 -->
<g id="node7" class="node"><title>layer7</title>
<polygon fill="none" stroke="black" points="29,-565.301 29,-620.501 312.2,-620.501 312.2,-565.301 29,-565.301"/>
<text text-anchor="middle" x="87.4" y="-601.301" font-family="Fira Mono" font-size="14.00">InnerProduct</text>
<text text-anchor="middle" x="87.4" y="-581.701" font-family="Fira Mono" font-size="14.00">ip2</text>
<polyline fill="none" stroke="black" points="145.8,-565.301 145.8,-620.501 "/>
<text text-anchor="middle" x="170.6" y="-605.301" font-family="Fira Mono" font-size="14.00">top:</text>
<polyline fill="none" stroke="black" points="145.8,-592.901 195.4,-592.901 "/>
<text text-anchor="middle" x="170.6" y="-577.701" font-family="Fira Mono" font-size="14.00">bot:</text>
<polyline fill="none" stroke="black" points="195.4,-565.301 195.4,-620.501 "/>
<text text-anchor="middle" x="253.6" y="-605.301" font-family="Fira Mono" font-size="14.00">ip2 (10x64)</text>
<polyline fill="none" stroke="black" points="195.4,-592.901 312.2,-592.901 "/>
<text text-anchor="middle" x="253.8" y="-577.701" font-family="Fira Mono" font-size="14.00">ip1 (500x64)</text>
</g>
<!-- layer6&#45;&gt;layer7 -->
<g id="edge6" class="edge"><title>layer6:t1&#45;&gt;layer7:b1</title>
<path fill="none" stroke="black" d="M253.6,-528.801C253.6,-540.801 253.6,-546.051 253.6,-554.676"/>
<polygon fill="black" stroke="black" points="250.1,-554.8 253.6,-564.801 257.1,-554.801 250.1,-554.8"/>
</g>
<!-- layer7&#45;&gt;layer8 -->
<g id="edge7" class="edge"><title>layer7:t1&#45;&gt;layer8:b1</title>
<path fill="none" stroke="black" d="M253.6,-621.001C253.6,-633.001 253.6,-638.251 253.6,-646.876"/>
<polygon fill="black" stroke="black" points="250.1,-647.001 253.6,-657.001 257.1,-647.001 250.1,-647.001"/>
</g>
</g>
</svg>
